<svg xmlns="http://www.w3.org/2000/svg" width="220" height="220" fill="none"><path fill="#63A9E8" d="M13.01 78.427c-2.645-.861-3.968-1.292-5.206-1.069a5.223 5.223 0 0 0-2.822 1.568c-.844.933-1.155 2.194-1.777 4.715a110 110 0 0 0 19.178 92.867c1.57 2.068 2.355 3.102 3.5 3.625.96.439 2.184.561 3.212.322 1.225-.286 2.269-1.205 4.356-3.043l4.295-3.783c2.1-1.85 3.151-2.775 3.596-3.812.416-.971.513-1.863.316-2.9-.21-1.109-1.112-2.343-2.916-4.81A88.282 88.282 0 0 1 23.93 90.383c.68-2.98 1.019-4.47.772-5.571-.23-1.03-.673-1.811-1.439-2.538-.82-.776-2.15-1.21-4.812-2.076l-5.441-1.771Z"/><path fill="#2185DE" d="M37.875 182.125c-1.967 1.967-2.95 2.95-3.313 4.155a5.224 5.224 0 0 0 .117 3.226c.45 1.175 1.432 2.024 3.397 3.722a110.002 110.002 0 0 0 138.48 4.352c2.068-1.571 3.102-2.357 3.624-3.501.438-.961.56-2.185.319-3.213-.286-1.225-1.206-2.268-3.045-4.355l-3.785-4.292c-1.851-2.1-2.776-3.15-3.814-3.594-.971-.415-1.863-.512-2.9-.315-1.109.211-2.342 1.114-4.809 2.92a88.279 88.279 0 0 1-108.662-3.415c-2.348-1.957-3.522-2.936-4.615-3.216-1.023-.262-1.92-.221-2.915.133-1.063.377-2.053 1.367-4.032 3.346l-4.047 4.047Z"/><path fill="#175D9C" d="M182.125 182.125c1.967 1.967 2.95 2.95 4.155 3.313a5.225 5.225 0 0 0 3.226-.118c1.175-.449 2.024-1.431 3.722-3.396a109.993 109.993 0 0 0 26.481-63.931c.189-2.59.283-3.885-.23-5.033a5.22 5.22 0 0 0-2.198-2.364C216.172 110 214.782 110 212 110h-5.723c-2.799 0-4.199 0-5.218.485-.953.454-1.616 1.059-2.154 1.967-.575.971-.713 2.493-.99 5.537a88.288 88.288 0 0 1-20.101 48.527c-1.956 2.348-2.935 3.522-3.215 4.615-.262 1.023-.221 1.92.132 2.915.378 1.063 1.368 2.053 3.347 4.032l4.047 4.047Z"/><path fill="#0D3559" d="M211.746 102.803c2.774-.196 4.162-.295 5.225-.967a5.22 5.22 0 0 0 2.026-2.513c.431-1.182.246-2.467-.125-5.038A110.002 110.002 0 0 0 124.017.897C121.441.566 120.154.4 118.978.85a5.222 5.222 0 0 0-2.481 2.065c-.656 1.073-.732 2.462-.885 5.24l-.315 5.714c-.154 2.794-.231 4.192.197 5.236.4.977.968 1.672 1.846 2.26.938.627 2.45.849 5.474 1.293a88.276 88.276 0 0 1 74.318 73.17c.491 3.016.736 4.524 1.378 5.453.601.868 1.305 1.425 2.288 1.81 1.051.412 2.447.313 5.239.116l5.709-.404Z"/><path fill="#A6CEF2" d="M110 8c0-2.782 0-4.172-.596-5.28A5.22 5.22 0 0 0 107.04.52c-1.148-.513-2.443-.419-5.033-.23a110.001 110.001 0 0 0-91.07 61.89C9.81 64.52 9.244 65.69 9.3 66.947a5.223 5.223 0 0 0 1.173 3.008c.812.961 2.105 1.473 4.69 2.497l5.322 2.107c2.602 1.03 3.904 1.546 5.03 1.47 1.053-.07 1.892-.39 2.727-1.036.892-.691 1.581-2.056 2.959-4.784a88.277 88.277 0 0 1 70.811-48.123c3.044-.277 4.566-.415 5.537-.99.908-.538 1.513-1.2 1.967-2.154.485-1.02.485-2.42.485-5.218V8Z"/></svg>