<svg xmlns="http://www.w3.org/2000/svg" width="92" height="20" fill="none"><path fill="#FCA014" d="M18.92 12.42c-1.283 5.356-6.494 8.617-11.64 7.28C2.136 18.366-.996 12.94.288 7.583 1.57 2.224 6.782-1.036 11.926.299c5.146 1.336 8.277 6.763 6.994 12.12Z"/><path fill="#fff" d="M13.839 8.575c.19-1.33-.782-2.046-2.113-2.523l.432-1.803-1.054-.273-.42 1.755c-.277-.072-.562-.14-.845-.207l.424-1.767-1.054-.273-.431 1.802c-.23-.055-.455-.108-.673-.165v-.006l-1.453-.377-.28 1.171s.782.187.765.199c.427.11.504.405.492.638l-.492 2.053c.03.008.067.02.11.037-.036-.01-.073-.02-.112-.029l-.69 2.877c-.051.135-.184.337-.482.26.01.016-.766-.199-.766-.199l-.523 1.256 1.371.356c.255.067.505.136.752.202l-.437 1.823 1.053.273.432-1.803c.287.08.567.156.84.226l-.43 1.796 1.053.273.436-1.82c1.797.355 3.149.212 3.717-1.48.459-1.363-.022-2.149-.968-2.661.689-.166 1.207-.637 1.346-1.611ZM11.43 12.09c-.326 1.363-2.53.626-3.244.441l.58-2.415c.713.186 3.004.553 2.664 1.974Zm.326-3.535c-.297 1.24-2.131.61-2.726.455l.525-2.19c.594.154 2.51.442 2.2 1.735Z"/><g fill="#90A3BF" opacity=".5"><path d="M28.147 6.05c.78 0 1.452.145 2.018.43a4.094 4.094 0 0 1 1.413 1.165c.37.49.647 1.064.825 1.721.177.66.266 1.368.266 2.126a8.828 8.828 0 0 1-.619 3.303 8.609 8.609 0 0 1-1.69 2.71 7.947 7.947 0 0 1-2.528 1.82 7.457 7.457 0 0 1-3.158.67c-.147 0-.404-.004-.768-.012a10.798 10.798 0 0 1-1.25-.112c-.472-.069-.97-.17-1.496-.306a7.304 7.304 0 0 1-1.496-.556L23.87.61l3.767-.608-1.506 6.53c.322-.152.647-.269.971-.354a4.153 4.153 0 0 1 1.045-.128Zm-3.16 10.834c.568 0 1.102-.145 1.605-.43a4.271 4.271 0 0 0 1.302-1.152 5.883 5.883 0 0 0 .862-1.633 5.77 5.77 0 0 0 .317-1.9c0-.81-.13-1.44-.39-1.897-.258-.455-.738-.684-1.434-.684-.228 0-.522.046-.886.127a2.184 2.184 0 0 0-.986.532l-1.604 6.934.256.05c.071.018.15.03.229.038.083.01.178.015.293.015h.437ZM36.575 19.643h-3.598l3.039-13.311h3.623l-3.064 13.311ZM38.326 4.71c-.502 0-.957-.155-1.361-.467-.408-.31-.61-.788-.61-1.43 0-.354.07-.686.207-1 .139-.312.32-.58.548-.81.227-.227.49-.408.79-.544.3-.135.62-.202.96-.202.503 0 .956.156 1.361.468.404.313.607.79.607 1.43 0 .355-.068.688-.207 1a2.636 2.636 0 0 1-.546.81 2.639 2.639 0 0 1-.79.544 2.29 2.29 0 0 1-.959.201ZM42.791 3.015l3.769-.608-.926 3.924h4.036l-.729 3.087H44.93l-1.069 4.656c-.098.388-.154.75-.17 1.088-.017.338.024.629.12.873.098.246.271.435.523.569.251.136.61.204 1.082.204a5.54 5.54 0 0 0 1.132-.115c.363-.075.732-.18 1.104-.316l.269 2.887c-.486.185-1.013.345-1.58.48-.569.136-1.241.201-2.019.201-1.117 0-1.984-.173-2.601-.517-.617-.346-1.053-.82-1.313-1.42-.258-.596-.373-1.285-.34-2.06.033-.778.145-1.595.34-2.456L42.79 3.015Z"/></g><path fill="#90A3BF" d="M49.513 14.328c0-1.147.178-2.228.534-3.24a8.042 8.042 0 0 1 1.533-2.66A7.191 7.191 0 0 1 54 6.632c.945-.437 2.004-.658 3.17-.658.73 0 1.383.072 1.957.216a7.715 7.715 0 0 1 1.569.569l-1.241 2.938c-.324-.137-.66-.258-1.008-.367-.349-.112-.774-.166-1.277-.166-1.2 0-2.15.431-2.856 1.29-.704.86-1.059 2.017-1.059 3.469 0 .86.179 1.556.536 2.088.356.532 1.014.797 1.969.797.471 0 .926-.052 1.361-.151a6.523 6.523 0 0 0 1.168-.38l.269 3.011c-.456.184-.957.35-1.508.495-.551.14-1.208.213-1.97.213-1.005 0-1.856-.153-2.552-.454-.696-.307-1.272-.713-1.725-1.228a4.68 4.68 0 0 1-.985-1.811 7.712 7.712 0 0 1-.305-2.175ZM65.495 19.996c-.859 0-1.605-.136-2.238-.405a4.133 4.133 0 0 1-1.566-1.14 4.975 4.975 0 0 1-.936-1.732c-.213-.667-.315-1.404-.315-2.213 0-1.014.157-2.028.473-3.039a8.723 8.723 0 0 1 1.399-2.732 7.557 7.557 0 0 1 2.26-1.99c.888-.513 1.911-.77 3.06-.77.843 0 1.585.136 2.227.406.638.269 1.164.65 1.58 1.138.411.491.724 1.067.934 1.734.211.665.316 1.405.316 2.214 0 1.011-.154 2.025-.46 3.039a8.905 8.905 0 0 1-1.362 2.732 7.217 7.217 0 0 1-2.248 1.986c-.899.514-1.941.772-3.124.772Zm1.798-10.831c-.533 0-1.005.16-1.409.48a4.09 4.09 0 0 0-1.02 1.215 6.142 6.142 0 0 0-.621 1.607 7.196 7.196 0 0 0-.206 1.657c0 .845.131 1.503.388 1.976.261.471.73.708 1.41.708.536 0 1.005-.16 1.411-.482.403-.32.744-.725 1.02-1.214a6.156 6.156 0 0 0 .622-1.607c.136-.581.205-1.135.205-1.658 0-.842-.13-1.502-.39-1.975-.259-.47-.73-.707-1.41-.707ZM76.61 19.643h-3.6l3.038-13.311h3.624l-3.061 13.311ZM78.36 4.71a2.17 2.17 0 0 1-1.36-.467c-.406-.31-.61-.788-.61-1.43 0-.354.07-.686.208-1 .137-.312.32-.58.547-.81.226-.227.492-.408.79-.544.3-.135.619-.202.959-.202.503 0 .957.156 1.362.468.405.313.61.79.61 1.43 0 .355-.073.688-.21 1a2.627 2.627 0 0 1-.545.81c-.228.228-.49.409-.79.544-.3.136-.62.201-.961.201ZM82.266 6.937c.273-.083.578-.183.91-.292.333-.108.704-.21 1.12-.3.41-.095.875-.171 1.384-.23.51-.06 1.092-.09 1.737-.09 1.898 0 3.206.575 3.928 1.723.722 1.147.847 2.717.378 4.707l-1.655 7.187h-3.621l1.604-7.036c.097-.44.174-.864.231-1.279.057-.411.054-.774-.013-1.088a1.312 1.312 0 0 0-.448-.76c-.238-.193-.596-.29-1.083-.29-.47 0-.946.052-1.434.153l-2.358 10.3h-3.623l2.943-12.705Z"/></svg>