<svg xmlns="http://www.w3.org/2000/svg" width="92" height="20" fill="none"><g clip-path="url(#a)"><g clip-path="url(#b)"><path fill="#00579F" d="M20.8 17.77H16.91l2.432-15.49h3.888L20.8 17.77ZM34.895 2.66A9.339 9.339 0 0 0 31.408 2c-3.84 0-6.544 2.109-6.56 5.124-.033 2.225 1.935 3.46 3.407 4.202 1.504.758 2.016 1.253 2.016 1.928-.016 1.038-1.216 1.516-2.335 1.516-1.553 0-2.385-.246-3.649-.824l-.512-.247-.544 3.477c.912.428 2.592.807 4.337.824 4.08 0 6.736-2.076 6.767-5.29.016-1.763-1.023-3.114-3.264-4.218-1.36-.708-2.192-1.186-2.192-1.911.016-.66.704-1.335 2.24-1.335a6.443 6.443 0 0 1 2.896.593l.351.165.53-3.345ZM40.064 12.282c.32-.89 1.552-4.333 1.552-4.333-.016.033.32-.907.512-1.483L42.4 7.8s.736 3.708.896 4.482h-3.232Zm4.8-10.001h-3.008c-.928 0-1.632.28-2.032 1.285l-5.776 14.203h4.08l.816-2.323h4.992c.112.543.464 2.323.464 2.323H48L44.863 2.281ZM13.663 2.28 9.855 12.843 9.44 10.7C8.735 8.23 6.527 5.543 4.063 4.208l3.488 13.545h4.112L17.775 2.28h-4.112Z"/><path fill="#F4A622" d="M6.32 2.28H.064L0 2.595C4.88 3.879 8.112 6.977 9.44 10.7L8.08 3.583c-.224-.99-.912-1.27-1.76-1.302Z"/></g><path fill="#FF5F00" d="M80.326 2.139h-8.653V17.86h8.653V2.14Z"/><path fill="#EB001B" d="M72.223 10c0-3.194 1.483-6.028 3.763-7.861A9.758 9.758 0 0 0 69.888 0C64.422 0 60 4.472 60 10s4.422 10 9.888 10a9.759 9.759 0 0 0 6.098-2.139c-2.28-1.805-3.763-4.667-3.763-7.861Z"/><path fill="#F79E1B" d="M92 10c0 5.528-4.422 10-9.888 10a9.759 9.759 0 0 1-6.098-2.139c2.307-1.833 3.763-4.667 3.763-7.861s-1.483-6.028-3.763-7.861A9.758 9.758 0 0 1 82.112 0C87.578 0 92 4.5 92 10Z"/></g><defs><clipPath id="a"><path fill="#fff" d="M0 0h92v20H0z"/></clipPath><clipPath id="b"><path fill="#fff" d="M0 2h48v16H0z"/></clipPath></defs></svg>