<svg xmlns="http://www.w3.org/2000/svg" width="14" height="14" fill="none"><path fill="#90A3BF" d="m13.032 5.442-1.167-.583a.441.441 0 0 0-.59.193.434.434 0 0 0 .193.589l.928.46v2.795l-2.188.006V2.917c0-1.167-.781-1.75-1.75-1.75H3.792c-.969 0-1.75.583-1.75 1.75v9.479h-.875a.44.44 0 0 0-.438.437c0 .24.199.438.438.438h9.916a.44.44 0 0 0 .438-.438.44.44 0 0 0-.438-.437h-.875v-2.62l2.625-.005a.437.437 0 0 0 .438-.438v-3.5a.443.443 0 0 0-.24-.39ZM3.5 4.02c0-.81.496-1.102 1.103-1.102h3.05c.601 0 1.097.291 1.097 1.102v.718c0 .805-.496 1.096-1.102 1.096H4.603c-.607 0-1.103-.291-1.103-1.102v-.712Zm.292 3.127h1.75a.44.44 0 0 1 .437.437.44.44 0 0 1-.437.438h-1.75a.44.44 0 0 1-.438-.438.44.44 0 0 1 .438-.437Z"/></svg>