<svg xmlns="http://www.w3.org/2000/svg" width="640" height="360" fill="none"><g clip-path="url(#a)"><rect width="640" height="360" fill="#3563E9" rx="10"/><path fill="#fff" fill-opacity=".06" d="m-4 300-25-60h50l25 60-25 60h-50l25-60ZM87 300l-25-60h50l25 60-25 60H62l25-60ZM178 300l-25-60h50l25 60-25 60h-50l25-60ZM269 300l-25-60h50l25 60-25 60h-50l25-60ZM360 300l-25-60h50l25 60-25 60h-50l25-60ZM451 300l-25-60h50l25 60-25 60h-50l25-60ZM542 300l-25-60h50l25 60-25 60h-50l25-60ZM633 300l-25-60h50l25 60-25 60h-50l25-60ZM41 180l-25-60h50l25 60-25 60H16l25-60ZM132 180l-25-60h50l25 60-25 60h-50l25-60ZM223 180l-25-60h50l25 60-25 60h-50l25-60ZM314 180l-25-60h50l25 60-25 60h-50l25-60ZM405 180l-25-60h50l25 60-25 60h-50l25-60ZM496 180l-25-60h50l25 60-25 60h-50l25-60ZM587 180l-25-60h50l25 60-25 60h-50l25-60ZM-5 60-30 0h50l25 60-25 60h-50l25-60ZM86 60 61 0h50l25 60-25 60H61l25-60ZM177 60 152 0h50l25 60-25 60h-50l25-60ZM268 60 243 0h50l25 60-25 60h-50l25-60ZM359 60 334 0h50l25 60-25 60h-50l25-60ZM450 60 425 0h50l25 60-25 60h-50l25-60ZM541 60 516 0h50l25 60-25 60h-50l25-60ZM632 60 607 0h50l25 60-25 60h-50l25-60Z"/></g><defs><clipPath id="a"><rect width="640" height="360" fill="#fff" rx="10"/></clipPath></defs></svg>