<svg xmlns="http://www.w3.org/2000/svg" width="14" height="14" fill="none"><path fill="#90A3BF" d="M5.25 1.167a2.773 2.773 0 0 0-2.77 2.77c0 1.5 1.172 2.713 2.7 2.765a.47.47 0 0 1 .128 0H5.35a2.764 2.764 0 0 0 2.672-2.765 2.773 2.773 0 0 0-2.77-2.77ZM8.213 8.254c-1.627-1.085-4.281-1.085-5.92 0-.741.496-1.15 1.167-1.15 1.884 0 .718.409 1.383 1.144 1.873.816.548 1.89.822 2.963.822 1.073 0 2.147-.274 2.963-.822.735-.496 1.144-1.161 1.144-1.884-.006-.718-.409-1.383-1.144-1.873ZM11.66 4.282a2.088 2.088 0 0 1-1.825 2.257h-.029c-.035 0-.07 0-.1.012a2.093 2.093 0 0 1-1.475-.484 2.67 2.67 0 0 0 .875-2.217 2.707 2.707 0 0 0-.45-1.272 2.096 2.096 0 0 1 3.004 1.703Z"/><path fill="#90A3BF" d="M12.828 9.678c-.047.565-.409 1.055-1.015 1.388-.584.32-1.319.472-2.048.455.42-.38.665-.852.712-1.354.058-.723-.286-1.417-.974-1.971A4.815 4.815 0 0 0 8.16 7.46c1.29-.373 2.91-.123 3.908.682.537.432.811.975.759 1.535Z"/></svg>