<svg xmlns="http://www.w3.org/2000/svg" width="96" height="20" fill="none"><path fill="#022273" d="M35.898 4.473h-5.313a.817.817 0 0 0-.48.15.613.613 0 0 0-.25.381l-2.148 11.623a.324.324 0 0 0 .012.161.363.363 0 0 0 .09.143.442.442 0 0 0 .151.097.509.509 0 0 0 .185.035h2.537a.818.818 0 0 0 .48-.151.613.613 0 0 0 .25-.381l.579-3.135a.612.612 0 0 1 .249-.381.816.816 0 0 1 .48-.151H34.4c3.5 0 5.52-1.445 6.047-4.308.237-1.253.01-2.237-.678-2.926-.755-.757-2.094-1.157-3.872-1.157Zm.613 4.244c-.29 1.627-1.747 1.627-3.156 1.627h-.801l.562-3.037a.367.367 0 0 1 .15-.229.49.49 0 0 1 .288-.09h.367c.96 0 1.864 0 2.332.466.279.279.364.692.258 1.263Zm15.267-.052h-2.544a.49.49 0 0 0-.287.09.368.368 0 0 0-.15.229l-.113.607-.178-.22c-.55-.682-1.779-.91-3.004-.91-2.812 0-5.213 1.817-5.68 4.365-.244 1.27.102 2.486.947 3.334.776.78 1.885 1.104 3.205 1.104 2.265 0 3.521-1.242 3.521-1.242l-.113.603a.325.325 0 0 0 .01.161.364.364 0 0 0 .09.143.444.444 0 0 0 .15.098.509.509 0 0 0 .186.035h2.292a.817.817 0 0 0 .48-.151.613.613 0 0 0 .25-.381L52.213 9.1a.324.324 0 0 0-.01-.161.364.364 0 0 0-.09-.143.44.44 0 0 0-.15-.097.506.506 0 0 0-.186-.035Zm-3.546 4.224c-.245 1.24-1.399 2.073-2.87 2.073-.739 0-1.33-.202-1.708-.585-.376-.38-.52-.922-.4-1.525.23-1.23 1.403-2.09 2.851-2.09.723 0 1.31.205 1.697.592.387.39.541.935.43 1.535Zm17.096-4.224H62.77c-.12 0-.24.026-.346.074a.715.715 0 0 0-.265.202l-3.526 4.431-1.495-4.258a.643.643 0 0 0-.267-.324.828.828 0 0 0-.441-.125h-2.513c-.07 0-.14.014-.202.042a.43.43 0 0 0-.159.116.35.35 0 0 0-.078.165c-.01.06-.004.12.02.177l2.815 7.05-2.647 3.188a.332.332 0 0 0-.032.392.409.409 0 0 0 .163.15.5.5 0 0 0 .23.055h2.553c.12 0 .237-.024.343-.072a.712.712 0 0 0 .264-.198l8.503-10.472a.332.332 0 0 0 .029-.39.41.41 0 0 0-.163-.148.501.501 0 0 0-.23-.055Z"/><path fill="#167FC4" d="M73.788 4.473h-5.313a.817.817 0 0 0-.48.151.613.613 0 0 0-.25.38l-2.148 11.623a.324.324 0 0 0 .011.162.363.363 0 0 0 .09.142.44.44 0 0 0 .15.098.507.507 0 0 0 .186.034h2.726a.571.571 0 0 0 .336-.106.429.429 0 0 0 .174-.266l.61-3.295a.613.613 0 0 1 .249-.38.818.818 0 0 1 .48-.152h1.68c3.5 0 5.52-1.445 6.048-4.308.238-1.252.01-2.236-.678-2.926-.755-.756-2.093-1.157-3.871-1.157Zm.613 4.245c-.29 1.627-1.746 1.627-3.156 1.627h-.8l.563-3.038a.367.367 0 0 1 .149-.228.488.488 0 0 1 .287-.09h.368c.958 0 1.864 0 2.332.466.279.278.363.692.257 1.263Zm15.267-.052h-2.543a.488.488 0 0 0-.288.09.366.366 0 0 0-.148.229l-.113.607-.179-.22c-.55-.682-1.778-.91-3.004-.91-2.811 0-5.211 1.816-5.679 4.364-.242 1.272.102 2.487.947 3.335.777.779 1.884 1.104 3.204 1.104 2.265 0 3.522-1.243 3.522-1.243l-.114.603a.324.324 0 0 0 .011.162.365.365 0 0 0 .09.143.443.443 0 0 0 .151.098.507.507 0 0 0 .186.035h2.291a.817.817 0 0 0 .48-.152.613.613 0 0 0 .249-.38l1.375-7.43a.325.325 0 0 0-.011-.16.365.365 0 0 0-.09-.143.444.444 0 0 0-.152-.098.509.509 0 0 0-.185-.034ZM86.12 12.89c-.243 1.24-1.399 2.072-2.87 2.072-.737 0-1.33-.202-1.708-.585-.376-.38-.518-.922-.4-1.525.231-1.23 1.403-2.089 2.852-2.089.722 0 1.31.205 1.696.591.39.39.543.936.43 1.536Zm6.546-8.098-2.18 11.835a.323.323 0 0 0 .01.162.363.363 0 0 0 .09.142.441.441 0 0 0 .15.098.507.507 0 0 0 .186.034h2.192c.364 0 .674-.225.73-.532l2.15-11.622a.323.323 0 0 0-.011-.161.363.363 0 0 0-.09-.143.442.442 0 0 0-.15-.097.508.508 0 0 0-.186-.035h-2.455a.49.49 0 0 0-.287.09.368.368 0 0 0-.15.23Z"/><path fill="#022273" d="m5.643 19.322.407-2.202-.905-.018H.823L3.826.856A.204.204 0 0 1 3.91.73a.272.272 0 0 1 .16-.05h7.287c2.419 0 4.088.43 4.96 1.277.408.397.669.813.794 1.27.133.48.135 1.053.006 1.753l-.01.05v.449l.41.197c.311.135.591.317.826.538.35.34.576.772.672 1.285.098.526.066 1.153-.096 1.863-.186.817-.488 1.528-.895 2.11-.359.521-.842.973-1.418 1.325a6.267 6.267 0 0 1-1.909.735c-.704.157-1.506.235-2.386.235h-.567c-.406 0-.8.125-1.109.348a1.426 1.426 0 0 0-.578.88l-.043.199-.717 3.88-.033.142c-.008.046-.023.068-.045.083a.133.133 0 0 1-.075.024h-3.5Z"/><path fill="#167FC4" d="M17.903 5.082c-.022.118-.047.24-.075.364-.96 4.21-4.248 5.663-8.447 5.663H7.244c-.514 0-.947.319-1.027.75l-1.094 5.923-.31 1.678a.4.4 0 0 0 .014.2.45.45 0 0 0 .11.176.55.55 0 0 0 .187.121.63.63 0 0 0 .229.043h3.791c.45 0 .83-.278.902-.656l.037-.165.714-3.865.045-.212c.07-.379.453-.657.902-.657h.567c3.673 0 6.549-1.273 7.39-4.955.35-1.538.169-2.822-.76-3.726a3.616 3.616 0 0 0-1.038-.682Z"/><path fill="#022273" d="M16.896 4.74a8.72 8.72 0 0 0-.934-.178 13.882 13.882 0 0 0-1.885-.117h-5.71c-.218 0-.428.066-.593.186a.756.756 0 0 0-.308.471l-1.215 6.565-.035.192a.861.861 0 0 1 .35-.537 1.15 1.15 0 0 1 .676-.213H9.38c4.199 0 7.486-1.455 8.447-5.663.029-.125.053-.246.075-.365a5.632 5.632 0 0 0-1.006-.342Z"/><path fill="#022273" d="M7.468 5.102a.754.754 0 0 1 .308-.47c.165-.121.375-.187.593-.186h5.71c.677 0 1.309.037 1.885.117.39.052.775.13 1.15.234.284.08.547.175.79.284.287-1.555-.002-2.614-.987-3.573C15.83.452 13.868 0 11.358 0H4.072c-.513 0-.95.318-1.03.75L.009 17.164a.459.459 0 0 0 .015.229.514.514 0 0 0 .127.202.625.625 0 0 0 .213.138c.083.032.172.05.262.05h4.499l1.13-6.114 1.214-6.566Z"/></svg>