<svg xmlns="http://www.w3.org/2000/svg" width="295" height="272" fill="none"><g clip-path="url(#a)"><rect width="295" height="272" fill="#F6F7F9" rx="10"/><path stroke="#A6CEF2" stroke-linecap="round" stroke-width="16" d="M146.288 272.5C183.5 164 275.5 270.5 377 116.5"/><path fill="#A6CEF2" d="m55 169.106 27-6.606 16 9.5 11 45 11 11 8.5 31.31-51 16.19L55 169.106ZM-4 83.5 39.5 81 50 140l-54 20V83.5Z"/><path stroke="#fff" stroke-linecap="round" stroke-width="16" d="m127.268-15.511 52.789 299.382"/><path stroke="#fff" stroke-linecap="round" stroke-width="10" d="m26.792.056 53.831 305.29"/><path stroke="#fff" stroke-linecap="round" stroke-width="16" d="M306.617 214.053 14.393 297.847M212.928-19.072l152 263.272M-37.885 176.467c136.985-55.538 218.138-71.219 372.561-64.813"/><path stroke="#fff" stroke-linecap="round" stroke-width="10" d="m303.358 132-27.056 15-22 30.5 49.056 258.871M64 228.403l-14.996 9.28-11.916 19.37 31.529 167.978"/><path stroke="#fff" stroke-linecap="round" stroke-width="8" d="m60 167.5 22.5-6L100 172l9 46.5 12.5 9.5 8 33"/><path stroke="#fff" stroke-linecap="round" stroke-width="10" d="M272.056 147.439 248 109.985M163 164l31-13.5 7.5-35M144 59.047l39-2.547L216.5 76l11.5 28M16 199.833l-9-40.516M46 240.833l-9-40.516M113.643 218.943 165.895 207M36.274 35.971l28.68-5.97M100.847 170.335 127.5 159.5M103.484 127.038l-5.272-24.145-19.273-10.645L58.5-13M130.193 156.663 148.5 135.5M132 162.203l24.156 7.2M206.5 63.5l33.656-23.097M184 54V-1.5M-22.357 87.943 92 72M55.702 186 19 202.5-3 243"/><path stroke="#3563E9" stroke-linecap="round" stroke-width="6" d="m227.147 110.602-70.582 6.36a6 6 0 0 0-5.361 7.072l16.198 87.16 16.884 94.631"/><path fill="#3563E9" d="M238.62 90.45c-1.05-4.62-5.08-6.7-8.62-6.7h-.01c-3.53 0-7.57 2.07-8.62 6.69-1.17 5.16 1.99 9.53 4.85 12.28a5.436 5.436 0 0 0 3.78 1.53c1.36 0 2.72-.51 3.77-1.53 2.86-2.75 6.02-7.11 4.85-12.27ZM230 95.46a3.15 3.15 0 1 1 0-6.3 3.15 3.15 0 0 1 0 6.3Z"/></g><defs><clipPath id="a"><rect width="295" height="272" fill="#fff" rx="10"/></clipPath></defs></svg>