<svg xmlns="http://www.w3.org/2000/svg" width="486" height="272" fill="none"><g clip-path="url(#a)"><rect width="486" height="272" fill="#F6F7F9" rx="10"/><path stroke="#A6CEF2" stroke-linecap="round" stroke-width="16" d="M230.5 273C295 142.5 391.909 251.5 506.007 97.5"/><path fill="#A6CEF2" d="m144.04 150.106 30.351-6.606 17.986 9.5 12.365 45 12.366 11 9.555 31.31-57.331 16.19-25.292-106.394ZM57 64.69 123.861 62 140 125.481 57 147V64.69Z"/><path stroke="#fff" stroke-linecap="round" stroke-width="16" d="M8-8h305.27" transform="matrix(.19443 .98092 -.98792 .15496 214.86 -41)"/><path stroke="#fff" stroke-linecap="round" stroke-width="10" d="M5-5h311.27" transform="matrix(.19443 .98092 -.98792 .15496 105.82 -23)"/><path stroke="#fff" stroke-linecap="round" stroke-width="16" d="M502.5 177 97.476 278.998"/><path stroke="#fff" stroke-linecap="round" stroke-width="16" d="M8-8h314.378" transform="matrix(.5444 .83882 -.88953 .45687 309.286 -41)"/><path stroke="#fff" stroke-linecap="round" stroke-width="16" d="M-16.5 171.5c165.523-57.323 319.473-88.058 505.123-83.518"/><path stroke="#fff" stroke-linecap="round" stroke-width="10" d="m423.225 113-30.415 15-24.731 30.5 55.145 258.871M154.156 209.403l-16.857 9.28-13.395 19.37 35.443 167.978"/><path stroke="#fff" stroke-linecap="round" stroke-width="8" d="m149.661 148.5 25.292-6 19.673 10.5 10.117 46.5 14.051 9.5 8.993 33"/><path stroke="#fff" stroke-linecap="round" stroke-width="10" d="m388.038 128.439-27.043-37.454M265.445 145l34.848-13.5 8.431-35M244.087 40.047l43.841-2.547L325.586 57l12.927 28M100.199 180.833l-10.117-40.516M133.923 221.833l-10.117-40.516M209.962 199.943 268.699 188M122.99 16.971l32.24-5.97M52.025 144.962l-.21-75.946M195.577 151.335l29.962-10.835M198.542 108.038l-5.927-24.145-21.664-10.645L147.975-32M228.566 137.663l20.579-21.163M230.598 143.203l27.154 7.2M314.345 44.5l37.833-23.097M289.052 35v-55.5M-46 73l231.633-20M144.829 167 72 196l-27 78.5"/><path stroke="#3563E9" stroke-linecap="round" stroke-width="8" d="m328 93-70.448 7.707a6 6 0 0 0-5.224 7.173l17.859 86.835 18.687 94.291"/><path fill="#3563E9" d="M337.62 72.45c-1.05-4.62-5.08-6.7-8.62-6.7h-.01c-3.53 0-7.57 2.07-8.62 6.69-1.17 5.16 1.99 9.53 4.85 12.28a5.436 5.436 0 0 0 3.78 1.53c1.36 0 2.72-.51 3.77-1.53 2.86-2.75 6.02-7.11 4.85-12.27ZM329 77.46a3.15 3.15 0 1 1 0-6.3 3.15 3.15 0 0 1 0 6.3Z"/></g><defs><clipPath id="a"><rect width="486" height="272" fill="#fff" rx="10"/></clipPath></defs></svg>