<svg xmlns="http://www.w3.org/2000/svg" width="99" height="20" fill="none"><path fill="#3563E9" d="M.728 19V1.12h3.12l6.696 9.096H9.056l6.552-9.096h3.12V19H15.44V4.84l1.272.312L9.92 14.2h-.384L2.912 5.152l1.08-.312V19H.728Zm29.51.288c-1.312 0-2.536-.232-3.672-.696a9.133 9.133 0 0 1-2.976-1.944 9.053 9.053 0 0 1-1.992-2.928c-.464-1.136-.696-2.36-.696-3.672 0-1.328.232-2.552.696-3.672a8.744 8.744 0 0 1 1.968-2.928 8.821 8.821 0 0 1 2.976-1.92c1.136-.464 2.368-.696 3.696-.696 1.328 0 2.56.232 3.696.696a9.133 9.133 0 0 1 2.976 1.944 8.49 8.49 0 0 1 1.968 2.904c.48 1.12.72 2.344.72 3.672 0 1.312-.24 2.536-.72 3.672a9.053 9.053 0 0 1-1.992 2.928 9.133 9.133 0 0 1-2.976 1.944c-1.12.464-2.344.696-3.672.696Zm0-2.976c.88 0 1.688-.152 2.424-.456a5.96 5.96 0 0 0 1.92-1.32 5.52 5.52 0 0 0 1.272-1.992 6.72 6.72 0 0 0 .456-2.496c0-.896-.152-1.72-.456-2.472a5.52 5.52 0 0 0-1.272-1.992 5.498 5.498 0 0 0-1.92-1.32c-.736-.304-1.544-.456-2.424-.456-.864 0-1.664.152-2.4.456a5.743 5.743 0 0 0-1.944 1.32 5.983 5.983 0 0 0-1.272 1.992c-.304.752-.456 1.576-.456 2.472 0 .896.152 1.728.456 2.496a5.983 5.983 0 0 0 1.272 1.992c.56.56 1.208 1 1.944 1.32a6.225 6.225 0 0 0 2.4.456ZM41.78 19V1.12h6.648c1.216 0 2.288.224 3.216.672.944.432 1.68 1.072 2.208 1.92.528.832.792 1.848.792 3.048 0 1.232-.296 2.28-.888 3.144-.576.864-1.36 1.504-2.352 1.92L55.508 19h-3.696l-4.392-7.848 2.112 1.248h-4.488V19H41.78Zm3.264-9.48h3.432c.592 0 1.104-.112 1.536-.336.432-.24.768-.568 1.008-.984.24-.416.36-.896.36-1.44 0-.56-.12-1.04-.36-1.44a2.43 2.43 0 0 0-1.008-.96c-.432-.24-.944-.36-1.536-.36h-3.432v5.52ZM56.927 19V1.12h11.88V4h-8.616v4.584h8.136v2.88h-8.136v4.656h8.616V19h-11.88Zm13.554 0V1.12h2.544l9.84 13.248-1.32.264V1.12h3.264V19H82.24L72.545 5.656l1.2-.264V19H70.48Zm20.237 0V4h-4.632V1.12h12.48V4h-4.56v15h-3.288Z"/></svg>