<svg xmlns="http://www.w3.org/2000/svg" width="32" height="32" fill="none"><path stroke="#1A202C" stroke-linecap="round" stroke-linejoin="round" stroke-width="2.5" d="M25.053 5.96a9.8 9.8 0 0 1-2.666-.213 9.947 9.947 0 0 1-2.92-1.587 19.883 19.883 0 0 1-2.134-1.747 1.533 1.533 0 0 0-2.093 0 24.118 24.118 0 0 1-2.053 1.72 10.36 10.36 0 0 1-2.934 1.627c-.996.225-2.02.306-3.04.24a22.96 22.96 0 0 1-2.493-.24 1.52 1.52 0 0 0-1.733 1.333c-.067.64-.24 2.307-.32 4.16-.113 1.852.004 3.71.346 5.534a17.333 17.333 0 0 0 5.134 7.8 42.786 42.786 0 0 0 6.16 4.826 3.533 3.533 0 0 0 4 0 42.505 42.505 0 0 0 5.813-4.893 17.735 17.735 0 0 0 4.84-7.68"/><path stroke="#3563E9" stroke-linecap="round" stroke-linejoin="round" stroke-width="2.5" d="m14.667 14.667 3.813 3.813a.252.252 0 0 0 .373 0L29.333 8"/></svg>